<?xml version="1.0" standalone="no"?>
<!DOCTYPE svg PUBLIC "-//W3C//DTD SVG 20010904//EN"
 "http://www.w3.org/TR/2001/REC-SVG-20010904/DTD/svg10.dtd">
<svg version="1.0" xmlns="http://www.w3.org/2000/svg"
 width="200.000000pt" height="200.000000pt" viewBox="0 0 200.000000 200.000000"
 preserveAspectRatio="xMidYMid meet">
<metadata>
Created by potrace 1.14, written by Peter Selinger 2001-2017
</metadata>
<g transform="translate(0.000000,200.000000) scale(0.100000,-0.100000)"
fill="#000000" stroke="none">
<path d="M639 1563 c0 -5 -2 -16 -4 -26 -2 -11 1 -15 8 -10 7 4 6 -1 -2 -10
-11 -13 -11 -17 -1 -17 8 0 11 -3 7 -6 -3 -3 7 -19 21 -36 31 -35 34 -50 10
-54 -17 -2 -33 10 -40 31 -4 14 -28 16 -25 2 3 -16 42 -47 59 -47 15 -1 98
-76 98 -89 0 -5 11 -11 25 -13 14 -3 25 -1 25 4 0 6 11 0 24 -13 14 -13 27
-22 30 -19 2 3 13 -6 24 -20 19 -25 25 -60 10 -60 -4 0 -8 -11 -8 -25 0 -17
-5 -25 -18 -25 -18 0 -52 33 -52 50 0 6 -3 10 -7 10 -5 0 -28 18 -53 39 l-44
39 29 4 30 4 -25 11 c-18 8 -27 7 -32 -1 -6 -8 -11 -7 -18 4 -5 8 -10 11 -10
6 0 -5 -7 -3 -15 4 -12 10 -19 10 -27 2 -9 -9 -9 -12 1 -12 20 0 73 -48 61
-55 -5 -3 -10 -2 -10 2 0 11 -84 53 -105 53 -8 0 -15 8 -15 18 0 14 -2 15 -10
2 -5 -8 -10 -10 -10 -4 0 12 -63 44 -85 44 -8 0 -15 5 -15 12 0 6 -3 9 -6 6
-3 -4 -20 -2 -37 4 -54 17 -107 26 -101 17 3 -5 0 -9 -5 -9 -6 0 -11 7 -11 15
0 8 -5 14 -12 12 -6 -1 -14 9 -18 23 -4 18 0 29 14 42 13 10 23 12 27 6 4 -5
9 -3 12 5 5 14 -31 29 -98 42 -11 2 -20 4 -20 5 0 1 -22 4 -50 6 -38 3 -55 -1
-71 -14 -39 -33 -50 -69 -31 -99 5 -7 6 -17 3 -22 -3 -5 1 -11 9 -15 8 -3 15
-12 15 -21 0 -8 4 -15 8 -15 16 0 45 -76 46 -120 1 -33 5 -44 15 -42 8 2 11
-3 8 -12 -4 -10 2 -20 15 -27 41 -22 74 -59 76 -85 1 -15 7 -33 13 -40 6 -8 8
-14 5 -14 -11 0 35 -63 58 -80 25 -18 68 -32 61 -19 -4 5 1 6 9 3 9 -3 16 -8
16 -9 0 -2 -24 -15 -54 -28 -56 -26 -78 -52 -73 -84 6 -34 28 -63 47 -63 11 0
20 -5 20 -11 0 -5 5 -7 10 -4 6 4 8 10 6 14 -3 4 8 7 25 7 17 0 29 -5 29 -13
0 -15 -21 -13 -33 2 -5 6 -7 4 -4 -5 2 -8 16 -16 31 -18 17 -2 26 0 22 6 -3 6
1 9 9 8 9 -1 15 -6 14 -12 0 -5 -5 -8 -10 -7 -12 4 -11 -14 1 -22 6 -4 8 -11
4 -16 -3 -5 0 -8 7 -7 8 2 14 -7 15 -21 1 -14 9 -30 18 -36 8 -7 13 -15 9 -18
-3 -4 -1 -8 5 -8 36 -4 80 -27 104 -54 12 -14 28 -23 35 -21 7 3 13 0 13 -6 0
-7 4 -7 13 0 6 6 14 10 17 10 20 1 59 25 80 48 21 24 25 26 28 12 2 -10 8 -18
13 -18 5 0 9 -7 9 -15 0 -20 54 -43 86 -37 13 2 34 15 47 28 28 30 32 30 47
-5 10 -26 62 -81 75 -81 3 0 10 0 16 0 5 0 7 -4 4 -10 -3 -6 1 -7 9 -4 9 3 16
10 16 15 0 5 5 8 12 6 7 -1 12 3 13 10 0 6 4 15 8 20 5 4 8 3 7 -2 -5 -24 1
-27 15 -9 20 26 19 40 -2 23 -9 -8 -18 -12 -20 -10 -3 1 -16 -6 -29 -18 -22
-19 -28 -19 -25 1 0 4 -5 5 -13 2 -8 -3 -17 0 -21 5 -3 6 -11 9 -16 6 -5 -3
-6 1 -3 9 4 10 1 16 -7 16 -11 0 -11 2 0 9 8 5 24 6 35 2 13 -5 32 -2 54 11
22 12 38 15 50 9 9 -5 34 -8 55 -7 20 0 37 -2 37 -6 0 -11 -33 -26 -51 -23 -9
2 -16 -4 -16 -11 0 -8 4 -14 9 -14 4 0 8 4 8 9 0 6 9 8 20 6 12 -2 23 2 27 10
3 8 10 12 15 9 6 -4 8 2 3 17 -5 19 -4 21 5 9 9 -11 13 -12 17 -2 2 7 11 19
20 27 8 8 11 15 6 15 -4 0 -1 4 7 10 9 5 19 5 27 -2 9 -7 13 -7 13 1 0 9 5 9
21 0 17 -9 20 -8 13 3 -6 11 -5 11 9 -1 13 -10 17 -10 17 -1 0 9 4 9 17 -1 15
-12 16 -12 10 5 -7 17 -6 17 10 5 15 -12 16 -12 10 3 -3 10 -1 20 5 24 6 4 8
3 4 -4 -3 -6 -3 -13 2 -16 11 -7 42 30 42 50 0 26 -31 70 -61 88 -29 17 -30
46 -2 46 8 0 12 -4 9 -8 -3 -5 1 -9 9 -9 8 0 15 5 15 11 0 6 4 5 9 -2 6 -10
10 -10 21 3 7 8 16 15 21 15 14 0 56 47 70 79 7 16 17 27 21 25 5 -3 7 0 6 6
-2 7 17 20 42 29 25 9 46 19 48 24 2 4 9 7 15 7 16 0 58 78 46 86 -5 3 -6 11
-3 17 4 8 2 7 -7 -1 -12 -11 -12 -14 1 -22 13 -8 12 -10 -3 -10 -10 0 -16 -4
-12 -9 3 -5 -1 -16 -9 -24 -8 -8 -12 -17 -9 -21 6 -6 0 -8 -29 -10 -7 -1 -19
-7 -26 -13 -7 -7 -21 -13 -31 -13 -18 0 -61 -43 -61 -61 0 -6 -18 -28 -40 -49
-34 -32 -47 -39 -91 -42 -29 -1 -59 2 -67 8 -12 9 -10 13 11 27 14 9 37 18 51
21 79 14 122 44 148 102 19 44 50 70 68 59 6 -3 10 -1 10 6 0 7 3 9 7 6 9 -10
53 33 53 53 0 30 25 71 48 76 12 4 22 10 22 15 0 5 6 9 14 9 17 0 33 44 31 83
-2 29 4 34 23 15 16 -16 15 -85 0 -91 -8 -4 -7 -6 3 -6 25 -1 41 23 26 39 -9
10 -9 11 1 6 14 -8 17 10 2 19 -5 3 -10 12 -10 18 0 7 4 6 10 -3 6 -9 10 -10
10 -3 0 15 -52 52 -82 59 -13 3 -53 8 -90 10 -50 2 -69 0 -79 -12 -10 -12 -10
-15 1 -12 7 2 17 -9 22 -24 11 -32 -9 -61 -39 -56 -12 2 -18 -4 -19 -19 -1
-13 -2 -24 -4 -25 -1 -2 -4 -16 -6 -33 -8 -47 -23 -58 -68 -50 -22 3 -43 9
-46 13 -17 24 -140 80 -140 64 0 -4 -12 -9 -26 -10 -15 -1 -41 -10 -58 -20
-26 -15 -54 -19 -99 -13 -4 1 -3 11 4 22 7 14 14 18 18 11 5 -8 14 -8 32 2 14
7 33 12 42 10 9 -1 15 2 11 7 -3 5 5 9 18 9 13 0 29 5 36 12 9 9 12 9 12 -1 0
-9 4 -10 13 -4 6 6 27 10 45 9 19 0 35 1 37 4 2 3 29 5 59 4 35 -1 56 3 56 10
0 8 2 8 8 0 9 -14 40 -14 45 0 3 7 -26 11 -88 11 -74 0 -91 -3 -87 -14 4 -10
1 -11 -14 -3 -10 5 -28 6 -39 2 -11 -4 -28 -4 -37 1 -10 6 -18 5 -20 -2 -2 -6
-20 -12 -39 -13 -41 -3 -62 -13 -54 -27 10 -15 -22 -10 -35 6 -14 16 -52 14
-58 -3 -2 -7 -8 -9 -14 -6 -6 4 -13 3 -17 -2 -11 -17 -62 -46 -87 -50 -22 -4
-24 -2 -14 15 7 13 7 22 0 26 -6 4 -8 11 -5 16 4 5 2 9 -4 9 -5 0 -13 -4 -16
-10 -3 -5 -13 -10 -21 -10 -9 0 -12 5 -8 12 4 7 3 8 -4 4 -14 -8 -16 -37 -3
-34 5 2 19 -8 32 -22 20 -21 24 -36 23 -80 -1 -30 -4 -67 -8 -81 -6 -21 -3
-27 18 -37 26 -12 36 -32 15 -32 -5 0 -7 5 -3 11 4 7 1 10 -7 7 -8 -3 -19 2
-25 10 -10 13 -14 12 -34 -11 -13 -15 -34 -34 -48 -43 -22 -15 -25 -14 -53 15
-16 17 -26 31 -23 31 4 0 1 6 -5 14 -7 9 -12 45 -12 85 0 60 4 76 25 104 14
18 35 33 47 34 12 1 27 7 33 13 8 9 5 11 -14 8 -18 -2 -26 2 -28 16 -2 11 0
16 6 12 6 -3 13 -2 16 2 8 14 56 8 66 -8 7 -12 13 -11 32 7 51 47 126 59 172
27 11 -8 17 -14 13 -14 -4 0 -2 -6 5 -13 16 -17 49 -10 41 9 -3 8 -8 12 -13 9
-4 -2 -17 5 -29 16 l-22 21 56 27 c48 22 55 29 52 49 -3 16 2 26 17 34 11 7
24 11 29 10 4 -1 7 2 7 7 0 5 8 17 17 27 9 9 18 30 19 46 2 21 -1 27 -8 20 -6
-6 -11 -21 -12 -33 0 -12 -11 -28 -22 -36 -19 -12 -22 -12 -28 3 -4 11 -2 15
8 11 10 -4 13 -1 9 9 -4 11 -9 12 -19 3 -8 -6 -11 -15 -8 -20 3 -5 1 -9 -4 -9
-5 0 -12 -13 -15 -29 -6 -27 -59 -91 -77 -91 -15 0 -18 26 -5 62 11 34 11 36
-6 25 -10 -6 -15 -15 -13 -19 3 -4 1 -8 -3 -8 -5 0 -9 -11 -9 -24 0 -14 4 -22
10 -19 5 3 6 1 2 -5 -4 -7 -14 -12 -22 -12 -8 0 -14 -4 -14 -8 0 -4 -9 -8 -21
-9 -18 -2 -20 2 -14 30 l7 32 -19 -24 c-10 -12 -30 -36 -45 -51 l-26 -29 -35
18 c-19 10 -42 16 -51 14 -9 -2 -24 -5 -33 -6 -18 -4 -60 40 -55 57 2 4 -4 16
-13 26 -8 9 -12 20 -8 23 3 4 2 7 -4 7 -17 0 -24 -28 -8 -32 9 -2 11 -8 6 -16
-6 -10 -13 -8 -34 8 -21 17 -24 25 -17 48 10 37 -9 75 -30 62 -13 -9 -13 -10
0 -10 19 0 21 -67 3 -74 -16 -7 -72 61 -68 83 1 9 -3 19 -9 23 -8 6 -8 8 0 8
14 0 10 48 -5 63 -7 7 -9 3 -6 -15 3 -17 0 -25 -10 -25 -17 0 -29 48 -20 77 5
14 2 20 -9 20 -9 0 -16 -3 -17 -7z m-515 -71 c-12 -54 -5 -84 28 -113 21 -18
28 -36 31 -75 5 -57 21 -94 40 -94 21 -1 47 -27 53 -51 16 -73 25 -93 57 -126
17 -18 37 -33 43 -33 7 0 29 -17 49 -37 25 -26 32 -39 23 -44 -7 -4 -18 -3
-26 3 -7 6 -26 11 -43 10 -16 0 -27 4 -24 9 4 5 1 9 -6 9 -15 0 -49 39 -49 56
0 7 -6 17 -12 21 -14 9 -17 35 -6 44 8 5 -37 57 -77 90 -30 25 -56 59 -45 59
7 0 7 6 0 19 -7 14 -7 22 1 27 7 4 8 9 1 13 -5 3 -12 15 -14 26 -1 11 -5 22
-8 25 -18 16 -50 70 -50 84 0 9 -6 16 -14 16 -9 0 -12 8 -8 25 2 14 8 25 12
25 4 0 12 12 18 26 15 32 34 22 26 -14z m267 -126 c18 -2 35 -9 37 -14 2 -6
10 -8 19 -5 9 4 20 -1 25 -12 8 -12 12 -14 18 -5 5 9 10 8 21 -2 8 -7 46 -28
84 -47 39 -19 82 -42 97 -53 16 -11 29 -15 33 -8 3 5 12 10 18 9 9 0 9 -2 0
-6 -7 -2 -13 -13 -13 -23 0 -10 -4 -22 -10 -25 -5 -3 -10 0 -10 7 0 9 -3 9
-10 -2 -14 -22 -12 -33 5 -26 9 3 18 -1 22 -9 4 -11 9 -13 18 -5 6 5 15 7 18
3 4 -3 7 -1 7 5 0 6 -4 14 -10 17 -16 10 -12 25 8 25 14 0 15 -2 2 -10 -12 -7
-8 -10 15 -10 25 0 36 -8 58 -42 19 -30 24 -44 15 -49 -7 -4 -12 -26 -11 -48
1 -34 -2 -41 -18 -41 -10 0 -19 7 -19 15 0 8 -4 15 -9 15 -4 0 -8 8 -7 18 0 9
-3 17 -9 17 -5 0 -9 -6 -9 -12 1 -7 -5 -13 -13 -13 -9 0 -13 6 -10 14 3 8 -1
22 -8 33 -14 17 -14 17 -15 0 0 -26 -24 -47 -57 -51 -15 -2 -51 -13 -80 -24
l-52 -21 -21 29 c-12 17 -17 30 -11 30 6 0 8 7 5 15 -4 10 0 13 16 10 13 -2
30 0 40 5 9 5 33 10 53 12 23 1 33 6 30 14 -3 7 -15 10 -31 7 -15 -2 -35 -5
-44 -6 -10 -1 -18 -4 -18 -7 0 -3 -12 -6 -26 -7 -15 0 -30 -7 -34 -13 -6 -10
-16 -10 -43 -1 -36 12 -61 51 -63 101 -1 14 -3 27 -4 30 -13 35 -4 36 41 2 28
-20 54 -38 59 -38 6 -1 13 -3 18 -4 20 -7 88 -4 94 5 5 6 8 5 8 -3 0 -7 5 -10
10 -7 6 4 8 9 6 13 -2 4 9 7 25 8 17 1 26 -3 22 -9 -3 -6 -1 -7 5 -3 15 9 15
26 1 26 -7 0 -22 11 -35 26 -13 14 -24 22 -24 18 0 -4 -6 -1 -12 8 -29 35
-120 43 -175 15 -29 -15 -90 -14 -106 2 -16 16 -14 101 2 111 9 5 19 6 22 4 4
-2 22 -6 40 -8z m108 -148 c10 -22 16 -27 22 -17 5 9 9 9 9 3 0 -6 -8 -18 -17
-25 -9 -8 -14 -9 -10 -3 4 7 0 14 -8 17 -10 4 -12 1 -9 -11 4 -12 2 -11 -7 3
-15 25 -30 35 -41 29 -11 -7 -10 3 4 25 15 25 41 16 57 -21z m501 16 c0 -8
-19 -13 -24 -6 -3 5 1 9 9 9 8 0 15 -2 15 -3z m-373 -42 c-10 -9 -22 -12 -34
-7 -10 4 -24 9 -31 11 -8 1 -17 6 -20 10 -4 4 7 4 25 1 18 -4 35 -2 38 3 3 5
13 6 21 3 14 -5 14 -7 1 -21z m540 -94 c-5 -45 -27 -98 -40 -98 -6 0 -7 -3 -4
-6 7 -7 -30 -44 -44 -44 -4 0 -11 5 -15 12 -4 7 -3 8 4 4 8 -5 12 5 11 31 -1
70 5 83 46 108 22 13 41 25 43 25 1 0 1 -15 -1 -32z m39 2 c1 -16 -2 -30 -6
-30 -7 0 -10 28 -4 48 6 20 9 14 10 -18z m157 -7 c-4 -11 -3 -14 5 -9 7 4 12
2 12 -3 0 -13 -13 -14 -24 -3 -4 4 -12 8 -17 8 -19 3 -20 4 -14 14 3 6 15 10
25 10 14 0 18 -5 13 -17z m163 -11 c-1 -12 6 -17 25 -15 22 1 26 -2 22 -18 -3
-10 -9 -19 -14 -19 -5 0 -9 -9 -9 -20 0 -11 -4 -20 -10 -20 -5 0 -10 -6 -10
-13 0 -22 -33 -42 -74 -45 -26 -3 -45 -12 -61 -30 -19 -22 -82 -42 -70 -22 5
9 -108 90 -125 90 -16 0 -8 31 11 43 16 10 79 -10 79 -25 0 -4 9 -5 20 -3 11
2 20 0 20 -4 0 -4 12 -14 28 -22 15 -8 30 -18 34 -24 5 -6 11 -6 18 1 8 8 -2
19 -37 40 -26 16 -51 29 -55 29 -3 0 -9 3 -13 7 -4 4 -14 4 -23 1 -10 -4 -13
-2 -8 5 3 6 2 13 -4 17 -5 3 -10 0 -10 -7 -1 -9 -5 -7 -14 5 -7 9 -18 17 -24
17 -6 0 -9 7 -6 15 4 8 10 12 15 9 5 -3 9 -1 9 4 0 15 57 7 85 -12 15 -10 24
-13 20 -6 -4 7 4 5 17 -4 14 -9 28 -13 31 -10 4 4 12 2 19 -3 17 -13 51 -13
60 1 5 7 8 6 8 -3 0 -11 3 -11 15 -1 8 6 19 8 26 4 7 -4 10 -2 7 7 -5 15 -36
20 -53 8 -5 -3 -21 -10 -35 -14 l-25 -7 23 17 c12 9 20 21 17 26 -4 5 1 9 9 9
9 0 16 4 16 9 0 4 11 6 24 4 14 -3 23 -11 22 -21z m-334 -46 c-7 -26 -31 -66
-54 -89 -24 -23 -23 -7 0 19 10 11 16 26 14 33 -3 8 0 11 7 7 7 -5 11 3 11 22
0 17 5 29 14 29 8 0 11 -8 8 -21z m-442 -53 c-8 -32 -5 -37 15 -33 6 1 0 -8
-12 -19 -12 -12 -31 -21 -43 -21 -21 0 -27 -14 -10 -25 6 -3 10 0 10 7 0 11 2
10 9 0 7 -11 9 -11 14 1 3 8 19 16 35 19 28 4 30 3 21 -20 -29 -76 -66 -94
-105 -50 -15 16 -16 21 -4 28 11 7 11 11 -2 24 -14 14 -20 11 -59 -24 -24 -21
-47 -36 -51 -34 -4 3 -8 0 -8 -7 0 -9 -3 -9 -14 0 -10 8 -16 9 -21 1 -3 -5
-18 -9 -33 -9 -17 1 -21 3 -9 6 9 2 17 10 17 16 0 7 5 6 11 -3 7 -10 9 -11 7
-2 -2 8 -8 14 -13 14 -6 0 -16 5 -24 11 -12 10 -13 9 -8 -7 6 -15 5 -17 -7 -7
-11 9 -15 8 -20 -4 -4 -13 -10 -14 -26 -5 -11 6 -20 16 -20 23 0 8 3 8 9 -1 7
-11 12 -10 27 6 19 19 69 33 134 35 19 1 38 6 42 12 5 6 8 5 8 -3 0 -8 5 -10
13 -5 6 4 17 8 22 8 6 1 9 5 8 11 -1 5 16 8 38 6 22 -3 39 0 39 6 0 15 -31 20
-65 9 -55 -16 -83 -17 -95 -2 -9 11 -9 18 3 30 9 8 20 15 24 14 20 -3 34 2 28
11 -8 13 8 13 22 -1 8 -8 15 -6 24 5 8 9 28 15 45 14 30 -2 31 -3 24 -35z m40
17 c6 -11 8 -20 6 -20 -3 0 -10 9 -16 20 -6 11 -8 20 -6 20 3 0 10 -9 16 -20z
m430 -61 c0 -5 5 -9 10 -9 6 0 20 -9 32 -20 12 -11 28 -20 35 -20 7 0 13 -7
13 -15 0 -8 5 -15 11 -15 8 0 7 -5 -2 -16 -9 -11 -15 -12 -17 -5 -3 9 -8 8
-20 -1 -13 -11 -14 -11 -7 1 5 9 4 12 -3 7 -6 -3 -14 -1 -17 5 -4 5 -13 8 -20
5 -7 -2 -16 2 -19 9 -3 8 -12 12 -21 9 -11 -5 -14 -2 -9 10 9 23 -12 20 -37
-5 l-22 -22 39 -32 c34 -29 37 -34 25 -49 -8 -9 -20 -15 -27 -12 -7 3 -16 0
-20 -6 -7 -12 -43 28 -44 49 0 16 -17 26 -24 14 -4 -5 2 -17 11 -27 14 -14 15
-18 4 -22 -10 -3 -10 -6 -1 -12 6 -4 15 -24 20 -44 9 -40 3 -48 -39 -52 -14
-1 -37 -5 -51 -8 -18 -5 -20 -4 -6 2 17 7 17 9 2 24 -10 10 -17 39 -19 82 -5
71 -9 67 58 70 16 0 30 7 31 14 3 23 4 24 17 13 8 -6 17 -8 20 -4 10 9 9 25
-1 19 -5 -3 -9 1 -9 9 0 8 4 12 9 9 5 -3 16 -3 26 1 14 5 14 7 2 16 -13 8 -12
12 7 28 22 19 63 18 63 0z m-376 -4 c-4 -8 -8 -15 -10 -15 -2 0 -4 7 -4 15 0
8 4 15 10 15 5 0 7 -7 4 -15z m9 -72 c-4 -10 -2 -14 5 -9 16 10 25 -13 12 -29
-7 -8 -10 -15 -7 -15 4 0 0 -18 -8 -40 -8 -22 -12 -40 -10 -40 3 0 -3 -8 -12
-18 -10 -10 -21 -14 -24 -9 -4 5 -16 4 -29 -3 -18 -9 -21 -9 -15 0 5 8 3 11
-6 8 -8 -3 -13 -10 -12 -15 3 -15 -51 -7 -55 8 -3 11 -1 11 5 2 7 -10 13 -10
27 0 16 12 16 14 2 26 -14 11 -13 15 4 34 11 11 20 26 20 33 0 6 7 15 16 18 9
3 14 13 11 21 -4 9 -1 12 9 8 10 -4 12 0 8 13 -4 11 -4 16 0 13 6 -5 37 0 63
10 1 1 -1 -6 -4 -16z m338 -3 c9 0 19 -7 23 -15 3 -8 12 -15 19 -15 8 0 27 -6
43 -14 45 -23 88 -39 97 -38 4 1 7 -3 7 -8 0 -6 5 -10 10 -10 6 0 23 -11 38
-25 21 -19 24 -27 14 -37 -9 -9 -12 -8 -13 8 0 11 -3 14 -6 6 -4 -10 -8 -10
-20 0 -18 15 -45 20 -37 7 3 -5 10 -7 15 -4 5 4 9 1 9 -5 0 -7 -7 -9 -16 -6
-18 7 -53 -12 -96 -53 -30 -28 -68 -35 -68 -13 0 8 6 12 15 8 8 -3 19 2 24 12
6 9 11 13 11 7 0 -7 3 -7 8 0 4 6 20 18 37 27 16 9 30 21 31 27 2 7 1 7 -3 1
-2 -5 -9 -10 -14 -10 -6 0 -7 5 -3 12 4 6 3 8 -4 4 -6 -3 -23 6 -38 21 -14 16
-23 22 -19 14 5 -9 4 -12 -3 -7 -6 4 -9 12 -6 19 6 17 -27 55 -43 50 -7 -3
-16 2 -19 11 -3 9 -12 16 -20 16 -8 0 -14 8 -14 17 0 13 3 14 12 5 7 -7 20
-12 29 -12z m-541 -50 c8 -8 26 -16 40 -16 42 -3 44 -3 27 -22 -10 -10 -17
-24 -17 -30 0 -6 -9 -16 -20 -22 -14 -8 -20 -8 -20 0 0 6 -4 9 -9 6 -5 -3 -14
1 -21 9 -7 8 -19 15 -26 15 -8 0 -14 6 -14 14 0 8 -8 17 -17 21 -16 6 -15 9 9
30 15 12 24 27 20 31 -10 12 30 -18 48 -36z m300 0 c14 -8 29 -13 33 -12 5 1
0 -8 -10 -22 -12 -16 -20 -20 -25 -12 -5 7 -8 5 -8 -6 0 -10 -4 -18 -10 -18
-15 0 -53 41 -45 48 4 4 12 -1 19 -10 7 -10 15 -15 19 -12 3 3 13 7 24 9 30 6
29 7 -6 14 -21 4 -35 12 -37 22 -2 19 11 19 46 -1z m-404 -9 c-8 -12 49 -72
59 -63 5 4 5 -2 1 -12 -5 -16 -4 -17 9 -6 12 10 15 10 15 -3 0 -32 -54 -5 -82
41 -12 21 -27 40 -32 44 -6 4 -1 8 12 8 13 0 21 -4 18 -9z m-176 -47 c0 -8
-19 -13 -24 -6 -3 5 1 9 9 9 8 0 15 -2 15 -3z m526 -19 c4 -8 10 -12 15 -9 5
3 9 0 9 -6 0 -6 10 -4 24 5 24 16 28 15 39 -17 7 -19 -49 -84 -73 -83 -18 0
-48 27 -43 38 3 4 0 14 -6 21 -8 9 -7 20 2 39 14 30 25 34 33 12z m360 7 c6
-4 14 -17 18 -29 5 -16 2 -23 -14 -28 -11 -3 -20 -11 -20 -16 0 -5 -7 -9 -15
-9 -9 0 -18 -7 -22 -16 -5 -13 -7 -13 -14 -2 -6 9 -11 10 -16 3 -11 -15 -77
-19 -68 -5 4 6 12 10 18 9 27 -3 42 1 30 9 -7 4 -14 24 -16 44 -4 32 -2 36 13
28 20 -11 46 -8 62 8 14 14 28 15 44 4z m-374 -121 c24 -21 39 -20 61 2 10 10
22 15 27 12 16 -10 -6 -41 -40 -55 -25 -10 -34 -10 -55 4 -14 9 -25 20 -25 25
0 5 -3 17 -7 27 -7 19 5 14 39 -15z m-329 -19 c9 -8 17 -11 17 -5 0 18 48 8
77 -15 15 -13 40 -26 56 -29 15 -3 30 -10 33 -14 3 -5 10 -6 16 -3 7 4 8 2 4
-4 -4 -6 -13 -9 -21 -5 -8 3 -15 1 -15 -5 0 -5 -17 -9 -37 -9 -29 1 -45 8 -65
31 -16 17 -28 26 -28 21 0 -6 -5 -3 -10 5 -7 10 -10 11 -10 2 0 -10 -4 -10
-20 0 -11 7 -20 19 -20 26 0 8 -6 12 -13 9 -8 -3 -14 1 -14 8 0 15 24 9 50
-13z m867 -4 c0 -4 -7 -8 -15 -8 -8 0 -15 4 -15 8 0 5 7 9 15 9 8 0 15 -4 15
-9z m-570 -11 c0 -13 27 -37 34 -30 3 4 6 1 6 -5 0 -13 30 -4 45 13 6 7 18 15
28 18 21 8 23 -16 2 -37 -8 -8 -15 -19 -15 -24 0 -6 -8 -9 -17 -8 -10 2 -20
-1 -23 -5 -3 -5 -19 -4 -35 0 -17 5 -26 10 -21 10 6 1 3 7 -5 14 -8 6 -20 24
-27 39 -10 24 -9 27 9 25 10 -1 19 -5 19 -10z"/>
<path d="M746 1132 c-4 -3 -13 -7 -20 -8 -7 -1 -24 -5 -36 -9 -17 -5 -21 -4
-15 5 5 9 4 11 -3 6 -21 -13 -13 -28 13 -24 14 3 25 1 25 -4 0 -5 8 -7 18 -4
13 5 22 0 28 -15 9 -20 10 -20 24 -3 10 12 11 15 2 10 -9 -6 -11 -1 -8 17 4
24 -14 43 -28 29z"/>
<path d="M345 1480 c-3 -5 -5 -10 -3 -11 2 0 12 -2 22 -4 10 -2 22 -8 25 -14
3 -5 19 -13 34 -16 15 -4 30 -11 33 -16 3 -5 14 -9 25 -9 10 0 19 -4 19 -10 0
-5 9 -10 21 -10 11 0 18 -4 15 -8 -3 -5 10 -15 29 -22 19 -7 31 -18 28 -23 -3
-6 -1 -7 5 -3 6 3 17 -1 25 -9 17 -17 37 -20 37 -6 0 5 -9 11 -21 14 -13 4
-18 10 -13 18 4 7 3 10 -3 6 -6 -4 -31 7 -57 23 -26 17 -51 30 -56 30 -6 0
-10 4 -10 10 0 5 -6 7 -13 4 -8 -3 -19 2 -26 10 -7 8 -20 12 -28 9 -12 -5 -14
-3 -8 7 5 9 4 11 -3 6 -7 -4 -12 -2 -12 4 0 6 -4 8 -10 5 -5 -3 -10 -1 -10 5
0 6 -4 8 -10 5 -5 -3 -10 -1 -10 4 0 14 -17 14 -25 1z"/>
<path d="M1415 1339 c-4 -6 -13 -8 -20 -5 -8 3 -17 -3 -20 -14 -4 -11 -12 -17
-21 -13 -7 3 -14 0 -14 -6 0 -21 35 -10 64 19 16 17 27 30 23 30 -3 0 -9 -5
-12 -11z"/>
<path d="M1694 1310 c-6 -6 -37 -13 -69 -16 -33 -3 -64 -9 -70 -13 -5 -4 -22
-7 -37 -6 -16 0 -28 -3 -28 -8 0 -4 -5 -5 -10 -2 -6 4 -16 3 -23 -3 -7 -5 -24
-8 -39 -7 -15 1 -25 -2 -22 -7 3 -4 -1 -9 -8 -9 -7 -1 -17 -2 -23 -3 -56 -13
-75 -21 -75 -32 0 -10 7 -10 35 2 19 8 35 11 35 8 0 -4 6 -2 13 3 16 14 58 24
144 36 12 2 26 6 29 10 4 4 27 7 51 7 27 0 42 4 38 10 -3 6 -1 10 4 10 6 0 11
-6 11 -12 0 -10 3 -9 9 1 5 7 13 11 18 8 5 -3 14 3 21 14 13 21 12 25 -4 9z"/>
<path d="M1884 1126 c-10 -14 -22 -23 -26 -20 -4 3 -11 -2 -14 -10 -3 -9 -10
-14 -14 -11 -15 9 -18 -10 -4 -23 12 -11 14 -10 14 3 0 8 3 15 8 15 10 0 72
54 72 63 0 15 -18 6 -36 -17z"/>
<path d="M961 1094 c-8 -19 -17 -25 -31 -21 -11 3 -21 1 -21 -4 -1 -5 -3 -13
-4 -19 -1 -5 -3 -15 -4 -21 0 -5 -5 -7 -11 -4 -5 3 -3 -10 5 -30 9 -19 12 -35
8 -35 -4 0 2 -6 12 -14 11 -7 16 -20 12 -29 -3 -8 0 -18 8 -21 14 -5 28 8 38
36 4 11 14 16 27 13 17 -3 19 -1 10 16 -11 19 -10 20 12 23 15 1 23 26 8 26
-8 0 -10 10 -7 26 4 23 2 25 -19 20 -21 -6 -24 -4 -20 17 7 38 -9 52 -23 21z"/>
</g>
</svg>
